# xmcd
#
# Track frame offsets: 
#        150
#        13253
#        27936
#        41833
#        54758
#        68687
#        80002
#        92505
#        102875
#        114545
#        125649
#        136598
#        148332
#        161384
#        173579
#        184660
#        196950
#        210279
#        223544
#        237373
#
# Disc length: 3346 seconds
#
# Revision: 0
# Processed by: cddbd v1.5.1PL0 Copyright (c) Steve Scherf et al.
# Submitted via: ExactAudioCopy v0.95a5
#
DISCID=0e0d1014
DTITLE=Various Artist - Jump 'n' Jive [CD1)
DYEAR=2004
DGENRE=Blues
TTITLE0=Pete Johnson - Atomic Boogie
TTITLE1=Big Joe Turner - My Gal's A Jockey
TTITLE2=Big Joe Turner - I'm In Sharp When I Hit The Coast
TTITLE3=Billy Eckstine - I Love The Rhythm in A Riff
TTITLE4=Billy Eckstine - Dop Bop Sh'Bam
TTITLE5=Helen Humes - Airplaine Blues
TTITLE6=Helen Humes - Helen's Advice
TTITLE7=Big Maybelle - Ring Dang Dilly
TTITLE8=Big Maybelle - That's A Pretty Good Love
TTITLE9=H-Bomb Ferguson - Bookie's Blues
TTITLE10=Tiny Bradshaw - Take The Hands Of The Clock
TTITLE11=Billy Wright - Married Woman's Boogie
TTITLE12=Gatemouth Moore - I Ain't Mad At You, Pretty Baby
TTITLE13=Doc Pomus - My Good Pott
TTITLE14=Sonny (Jackie) Wilson - The Rainy Day Blues
TTITLE15=Little Miss Sharecropper (LaVern Baker) - I Want To Rock
TTITLE16=Tommy Brown - Double-Faced Deacon
TTITLE17=Tommy Brown - V-8 Baby
TTITLE18=Nappy Brown - That Man
TTITLE19=Nappy Brown - The Night Time Is The Right Time
EXTD=
EXTT0=
EXTT1=
EXTT2=
EXTT3=
EXTT4=
EXTT5=
EXTT6=
EXTT7=
EXTT8=
EXTT9=
EXTT10=
EXTT11=
EXTT12=
EXTT13=
EXTT14=
EXTT15=
EXTT16=
EXTT17=
EXTT18=
EXTT19=
PLAYORDER=
